<svg width="25" height="25" viewBox="0 0 25 25" fill="none" xmlns="http://www.w3.org/2000/svg">
<path d="M25 12.5C25 19.4032 19.4032 25 12.5 25C5.59683 25 0 19.4032 0 12.5C0 5.59683 5.59683 0 12.5 0C19.4046 0 25 5.59683 25 12.5Z" fill="black"/>
<path d="M6.16697 12.92L6.22089 12.8352L9.47264 7.74827C9.52017 7.67379 9.63189 7.68149 9.66784 7.76239C10.2111 8.97987 10.6798 10.494 10.4602 11.4367C10.3665 11.8245 10.1096 12.3498 9.82067 12.8352C9.78344 12.9059 9.74234 12.9752 9.69867 13.042C9.67812 13.0728 9.64344 13.0908 9.60619 13.0908H6.26199C6.17209 13.0908 6.11944 12.9932 6.16697 12.92Z" fill="white"/>
<path d="M20.6611 13.8652V14.6705C20.6611 14.7167 20.6329 14.7578 20.5918 14.7758C20.3401 14.8836 19.4783 15.2792 19.12 15.7775C18.2056 17.0502 17.507 18.87 15.9453 18.87H9.43025C7.12118 18.87 5.25 16.9924 5.25 14.6756V14.6011C5.25 14.5395 5.30007 14.4894 5.36172 14.4894H8.99363C9.06553 14.4894 9.11818 14.5562 9.11178 14.6268C9.08608 14.8631 9.12975 15.1046 9.24148 15.3242C9.45723 15.7621 9.90415 16.0357 10.387 16.0357H12.185V14.632H10.4076C10.3164 14.632 10.2625 14.5266 10.3151 14.4522C10.3344 14.4226 10.3562 14.3918 10.3793 14.3571C10.5476 14.1183 10.7877 13.7471 11.0266 13.3246C11.1897 13.0395 11.3477 12.7351 11.4748 12.4295C11.5005 12.3742 11.521 12.3177 11.5416 12.2625C11.5763 12.1649 11.6122 12.0737 11.6379 11.9825C11.6636 11.9054 11.6841 11.8245 11.7047 11.7488C11.7651 11.4893 11.7907 11.2145 11.7907 10.9294C11.7907 10.8177 11.7856 10.7008 11.7753 10.5891C11.7702 10.4671 11.7548 10.3451 11.7394 10.2231C11.7291 10.1152 11.7098 10.0086 11.6893 9.89688C11.6636 9.73378 11.6276 9.57197 11.5865 9.40885L11.5724 9.34723C11.5416 9.23548 11.5159 9.1289 11.48 9.01717C11.3785 8.66655 11.2616 8.32495 11.1383 8.00517C11.0934 7.87802 11.042 7.75603 10.9906 7.63403C10.9149 7.45038 10.8378 7.28343 10.7672 7.12545C10.7312 7.05353 10.7004 6.98802 10.6696 6.92125C10.6349 6.84547 10.599 6.7697 10.563 6.6978C10.5373 6.64258 10.5078 6.5912 10.4872 6.53982L10.2676 6.134C10.2368 6.07877 10.2882 6.01327 10.3485 6.02997L11.7227 6.4024H11.7265C11.7291 6.4024 11.7304 6.4037 11.7317 6.4037L11.9127 6.45377L12.1118 6.5103L12.185 6.53083V5.71405C12.185 5.31977 12.5009 5 12.8914 5C13.0866 5 13.2638 5.07962 13.3909 5.20932C13.5181 5.33905 13.5977 5.51627 13.5977 5.71405V6.9264L13.7441 6.96747C13.7557 6.97135 13.7672 6.97648 13.7775 6.98418C13.8135 7.01115 13.8648 7.05095 13.9303 7.09977C13.9817 7.14085 14.0369 7.19095 14.1037 7.24232C14.236 7.3489 14.3939 7.48632 14.5673 7.6443C14.6135 7.6841 14.6585 7.7252 14.6996 7.7663C14.9231 7.97435 15.1735 8.21835 15.4124 8.48805C15.4791 8.56383 15.5446 8.64088 15.6114 8.72178C15.6782 8.80398 15.7488 8.88488 15.8105 8.9658C15.8914 9.07368 15.9787 9.1854 16.0545 9.30227C16.0904 9.3575 16.1315 9.414 16.1662 9.46922C16.2638 9.6169 16.3499 9.76975 16.4321 9.92257C16.4667 9.9932 16.5027 10.0702 16.5335 10.146C16.6247 10.3502 16.6966 10.5583 16.7428 10.7663C16.757 10.8113 16.7672 10.8601 16.7724 10.9038V10.914C16.7878 10.9757 16.7929 11.0412 16.7981 11.1079C16.8186 11.3211 16.8083 11.5343 16.7621 11.7488C16.7428 11.84 16.7172 11.926 16.6863 12.0172C16.6555 12.1045 16.6247 12.1957 16.5849 12.2817C16.5078 12.4602 16.4166 12.6388 16.3088 12.8057C16.2741 12.8674 16.233 12.9329 16.1919 12.9945C16.1469 13.06 16.1007 13.1216 16.0596 13.182C16.0031 13.2591 15.9428 13.34 15.8811 13.4119C15.8259 13.4877 15.7694 13.5635 15.7077 13.6302C15.6217 13.7317 15.5395 13.828 15.4534 13.9205C15.4021 13.9808 15.3469 14.0425 15.2903 14.0977C15.2351 14.1593 15.1786 14.2146 15.1272 14.2659C15.0412 14.352 14.9693 14.4188 14.9089 14.474L14.7677 14.6037C14.7471 14.6217 14.7201 14.632 14.6919 14.632H13.5977V16.0357H14.9744C15.2826 16.0357 15.5755 15.9265 15.8118 15.7261C15.8927 15.6555 16.2458 15.3498 16.6632 14.8888C16.6773 14.8734 16.6953 14.8618 16.7159 14.8567L20.5186 13.7574C20.5892 13.7368 20.6611 13.7907 20.6611 13.8652Z" fill="white"/>
</svg>
