<svg width="45" height="59" viewBox="0 0 45 59" fill="none" xmlns="http://www.w3.org/2000/svg">
<path d="M2.30327 30.6873C2.49077 32.1686 2.17201 35.8998 2.17201 35.8998C2.17201 35.8998 2.80951 37.6623 4.00951 41.6186C5.19076 45.5748 7.12201 50.4123 7.12201 50.4123L9.12827 51.1811L0.878265 58.9811H44.1908L39.4845 55.3811C39.4845 55.3811 38.097 53.4123 36.8783 52.3998C35.6595 51.3873 34.347 50.7311 33.5783 50.3936C32.8283 50.0561 32.3033 46.7561 31.7408 45.2561C31.197 43.7561 29.0783 43.1561 29.0783 43.1561L29.2658 36.5186C29.2658 36.5186 30.1658 35.6561 31.272 33.9123C32.397 32.1686 32.8283 30.2936 32.8283 30.2936C32.8283 30.2936 35.4908 26.5811 36.1658 21.2373C36.8595 15.8748 34.8345 13.1748 34.8345 13.1748C34.8345 13.1748 35.0033 11.1311 34.422 10.0998C33.8408 9.06856 32.2658 8.13106 32.2658 8.13106C32.2658 8.13106 31.047 5.61855 29.4345 3.78105C27.8033 1.94355 24.7658 2.09355 24.7658 2.09355C24.7658 2.09355 21.8595 1.0623 20.8658 0.837305C19.8908 0.612305 18.1283 1.3998 18.1283 1.3998C18.1283 1.3998 17.4345 0.424805 13.497 1.0248C9.55952 1.64355 7.87201 4.45605 7.87201 4.45605C7.87201 4.45605 7.17826 4.32481 4.12201 7.38106C1.04701 10.4561 2.04076 15.2748 2.05951 15.8936C2.07826 16.5123 1.34702 27.7998 1.34702 27.7998C1.34702 27.7998 2.11577 29.2061 2.30327 30.6873Z" fill="white"/>
<path fill-rule="evenodd" clip-rule="evenodd" d="M5.75381 39.7448C5.76343 39.5898 5.8969 39.4719 6.05193 39.4815L10.8894 39.7815C11.0445 39.7911 11.1623 39.9246 11.1527 40.0796C11.1431 40.2347 11.0096 40.3526 10.8546 40.3429L6.01712 40.0429C5.86208 40.0333 5.7442 39.8998 5.75381 39.7448Z" fill="black"/>
<path d="M15.5595 31.175C16.2637 31.175 16.8345 30.6042 16.8345 29.9C16.8345 29.1958 16.2637 28.625 15.5595 28.625C14.8554 28.625 14.2845 29.1958 14.2845 29.9C14.2845 30.6042 14.8554 31.175 15.5595 31.175Z" fill="black"/>
<path d="M4.75951 30.8C5.46368 30.8 6.03451 30.2292 6.03451 29.525C6.03451 28.8208 5.46368 28.25 4.75951 28.25C4.05535 28.25 3.48451 28.8208 3.48451 29.525C3.48451 30.2292 4.05535 30.8 4.75951 30.8Z" fill="black"/>
</svg>
