<svg width="136" height="60" viewBox="0 0 136 60" fill="none" xmlns="http://www.w3.org/2000/svg">
<path d="M19.9954 25.4537C27.9955 25.4537 34.5384 31.9981 34.5384 40C34.5384 48.0019 27.9955 54.5463 19.9954 54.5463C11.9954 54.5463 5.45245 48.0019 5.45245 40C5.45245 31.9981 11.9954 25.4537 19.9954 25.4537ZM19.9954 20C8.96833 20 0 28.9704 0 40C0 51.0296 8.96833 60 19.9954 60C31.0225 60 39.9908 51.0296 39.9908 40C39.9908 28.9704 31.0883 20 19.9954 20Z" fill="#1E1E1C"/>
<path d="M67.8641 25.4537C75.8641 25.4537 82.4071 31.9981 82.4071 40C82.4071 48.0019 75.8641 54.5463 67.8641 54.5463C59.864 54.5463 53.3211 48.0019 53.3211 40C53.3211 31.9981 59.864 25.4537 67.8641 25.4537ZM67.8641 20C56.837 20 47.8687 28.9704 47.8687 40C47.8687 51.0296 56.837 60 67.8641 60C78.8912 60 87.8595 51.0296 87.8595 40C87.8595 28.9704 78.9476 20 67.8641 20Z" fill="#1E1E1C"/>
<path d="M115.733 5.45369C123.733 5.45369 130.276 11.9981 130.276 20C130.276 28.0019 123.733 34.5463 115.733 34.5463C107.733 34.5463 101.19 28.0019 101.19 20C101.19 11.9981 107.733 5.45369 115.733 5.45369ZM115.733 0C104.706 0 95.7374 8.97038 95.7374 20C95.7374 31.0296 104.706 40 115.733 40C126.76 40 135.728 31.0296 135.728 20C135.728 8.97038 126.816 0 115.733 0Z" fill="#1E1E1C"/>
<path d="M34.8392 0H5.15161V5.39727H34.8392V0Z" fill="#1E1E1C"/>
<path d="M55.1355 0.0566406H49.683V13.9917H55.1355V0.0566406Z" fill="#1E1E1C"/>
<path d="M132.513 45.999H127.061V59.9341H132.513V45.999Z" fill="#1E1E1C"/>
</svg>
