<svg width="445" height="358" viewBox="0 0 445 358" fill="none" xmlns="http://www.w3.org/2000/svg">
<g style="mix-blend-mode:multiply">
<path d="M26.0002 209.088C11.6408 209.088 0.000182597 197.447 0.000181969 183.088L0.000173966 6.10352e-05L183.605 5.30095e-05C197.965 5.23818e-05 209.605 11.6406 209.605 26.0001L209.605 209.088L26.0002 209.088Z" fill="url(#paint0_radial_455_1407)"/>
</g>
<g style="mix-blend-mode:multiply">
<path d="M269 -1.1365e-06C283.359 -5.08827e-07 295 11.6406 295 26L295 310.526L26 310.526C11.6406 310.526 -1.30647e-05 298.886 -1.2437e-05 284.526L0 -1.28949e-05L269 -1.1365e-06Z" fill="url(#paint1_radial_455_1407)"/>
</g>
<g style="mix-blend-mode:multiply">
<path d="M118.518 47.2193C118.518 32.8599 130.158 21.2193 144.518 21.2193H279.474V284.526C279.474 298.886 267.833 310.526 253.474 310.526H118.518V47.2193Z" fill="url(#paint2_radial_455_1407)"/>
</g>
<path d="M258.233 244.016V308H243.423V260.715L228.833 264.978V253.728L256.87 244.016H258.233ZM322.085 270.163V281.853C322.085 286.452 321.543 290.451 320.459 293.85C319.404 297.248 317.881 300.061 315.889 302.287C313.926 304.514 311.582 306.169 308.858 307.253C306.133 308.337 303.13 308.879 299.849 308.879C297.212 308.879 294.751 308.542 292.466 307.868C290.181 307.165 288.115 306.11 286.27 304.704C284.453 303.269 282.886 301.481 281.568 299.343C280.249 297.204 279.238 294.685 278.535 291.784C277.832 288.854 277.481 285.544 277.481 281.853V270.163C277.481 265.534 278.008 261.535 279.063 258.166C280.147 254.768 281.685 251.955 283.677 249.729C285.669 247.502 288.028 245.847 290.752 244.763C293.477 243.679 296.48 243.137 299.761 243.137C302.398 243.137 304.844 243.488 307.1 244.191C309.385 244.865 311.45 245.92 313.296 247.355C315.142 248.762 316.709 250.534 317.998 252.673C319.317 254.812 320.327 257.346 321.03 260.275C321.734 263.176 322.085 266.472 322.085 270.163ZM307.276 283.654V268.273C307.276 266.223 307.158 264.436 306.924 262.912C306.719 261.389 306.397 260.1 305.957 259.045C305.547 257.99 305.034 257.141 304.419 256.496C303.804 255.822 303.101 255.339 302.31 255.046C301.548 254.724 300.698 254.562 299.761 254.562C298.589 254.562 297.534 254.812 296.597 255.31C295.689 255.778 294.912 256.54 294.268 257.595C293.623 258.649 293.125 260.056 292.774 261.813C292.451 263.571 292.29 265.725 292.29 268.273V283.654C292.29 285.734 292.393 287.551 292.598 289.104C292.832 290.627 293.154 291.931 293.565 293.015C294.004 294.069 294.531 294.934 295.147 295.607C295.762 296.252 296.465 296.721 297.256 297.014C298.047 297.307 298.911 297.453 299.849 297.453C300.991 297.453 302.017 297.219 302.925 296.75C303.833 296.281 304.61 295.52 305.254 294.465C305.928 293.381 306.426 291.96 306.748 290.202C307.1 288.415 307.276 286.232 307.276 283.654ZM374.292 270.163V281.853C374.292 286.452 373.75 290.451 372.666 293.85C371.612 297.248 370.088 300.061 368.096 302.287C366.133 304.514 363.789 306.169 361.065 307.253C358.34 308.337 355.337 308.879 352.056 308.879C349.419 308.879 346.958 308.542 344.673 307.868C342.388 307.165 340.322 306.11 338.477 304.704C336.66 303.269 335.093 301.481 333.775 299.343C332.456 297.204 331.445 294.685 330.742 291.784C330.039 288.854 329.688 285.544 329.688 281.853V270.163C329.688 265.534 330.215 261.535 331.27 258.166C332.354 254.768 333.892 251.955 335.884 249.729C337.876 247.502 340.235 245.847 342.959 244.763C345.684 243.679 348.687 243.137 351.968 243.137C354.605 243.137 357.051 243.488 359.307 244.191C361.592 244.865 363.657 245.92 365.503 247.355C367.349 248.762 368.916 250.534 370.205 252.673C371.524 254.812 372.534 257.346 373.237 260.275C373.941 263.176 374.292 266.472 374.292 270.163ZM359.483 283.654V268.273C359.483 266.223 359.365 264.436 359.131 262.912C358.926 261.389 358.604 260.1 358.164 259.045C357.754 257.99 357.241 257.141 356.626 256.496C356.011 255.822 355.308 255.339 354.517 255.046C353.755 254.724 352.905 254.562 351.968 254.562C350.796 254.562 349.741 254.812 348.804 255.31C347.896 255.778 347.119 256.54 346.475 257.595C345.83 258.649 345.332 260.056 344.981 261.813C344.658 263.571 344.497 265.725 344.497 268.273V283.654C344.497 285.734 344.6 287.551 344.805 289.104C345.039 290.627 345.362 291.931 345.772 293.015C346.211 294.069 346.738 294.934 347.354 295.607C347.969 296.252 348.672 296.721 349.463 297.014C350.254 297.307 351.118 297.453 352.056 297.453C353.198 297.453 354.224 297.219 355.132 296.75C356.04 296.281 356.817 295.52 357.461 294.465C358.135 293.381 358.633 291.96 358.955 290.202C359.307 288.415 359.483 286.232 359.483 283.654ZM382.114 259.704V256.32C382.114 253.889 382.642 251.677 383.696 249.685C384.751 247.692 386.333 246.096 388.443 244.895C390.552 243.693 393.174 243.093 396.309 243.093C399.531 243.093 402.197 243.693 404.307 244.895C406.416 246.096 407.984 247.692 409.009 249.685C410.064 251.677 410.591 253.889 410.591 256.32V259.704C410.591 262.077 410.064 264.26 409.009 266.252C407.984 268.244 406.416 269.841 404.307 271.042C402.227 272.243 399.605 272.844 396.441 272.844C393.247 272.844 390.596 272.243 388.487 271.042C386.377 269.841 384.78 268.244 383.696 266.252C382.642 264.26 382.114 262.077 382.114 259.704ZM391.607 256.32V259.704C391.607 260.583 391.782 261.418 392.134 262.209C392.486 263 393.013 263.645 393.716 264.143C394.448 264.611 395.342 264.846 396.397 264.846C397.481 264.846 398.36 264.611 399.033 264.143C399.707 263.645 400.205 263 400.528 262.209C400.879 261.418 401.055 260.583 401.055 259.704V256.32C401.055 255.383 400.879 254.519 400.528 253.728C400.205 252.937 399.693 252.307 398.989 251.838C398.286 251.34 397.393 251.091 396.309 251.091C395.283 251.091 394.419 251.34 393.716 251.838C393.013 252.307 392.486 252.937 392.134 253.728C391.782 254.519 391.607 255.383 391.607 256.32ZM412.481 295.695V292.312C412.481 289.909 413.008 287.712 414.063 285.72C415.147 283.728 416.743 282.131 418.853 280.93C420.991 279.729 423.628 279.128 426.763 279.128C429.986 279.128 432.637 279.729 434.717 280.93C436.826 282.131 438.394 283.728 439.419 285.72C440.474 287.712 441.001 289.909 441.001 292.312V295.695C441.001 298.098 440.474 300.295 439.419 302.287C438.394 304.279 436.841 305.876 434.761 307.077C432.681 308.278 430.059 308.879 426.895 308.879C423.701 308.879 421.035 308.278 418.897 307.077C416.758 305.876 415.147 304.279 414.063 302.287C413.008 300.295 412.481 298.098 412.481 295.695ZM422.017 292.312V295.695C422.017 296.604 422.237 297.453 422.676 298.244C423.115 299.035 423.701 299.68 424.434 300.178C425.166 300.646 425.972 300.881 426.851 300.881C428.198 300.881 429.195 300.646 429.839 300.178C430.513 299.68 430.952 299.035 431.157 298.244C431.392 297.453 431.509 296.604 431.509 295.695V292.312C431.509 291.403 431.333 290.554 430.982 289.763C430.63 288.972 430.103 288.342 429.4 287.873C428.696 287.375 427.818 287.126 426.763 287.126C425.708 287.126 424.829 287.375 424.126 287.873C423.423 288.342 422.896 288.972 422.544 289.763C422.193 290.554 422.017 291.403 422.017 292.312ZM430.454 253.2L399.209 303.21L392.31 299.738L423.555 249.729L430.454 253.2ZM176.723 350H171.045L171.08 345.254H176.723C177.895 345.254 178.885 344.973 179.694 344.41C180.514 343.848 181.135 343.01 181.557 341.896C181.99 340.771 182.207 339.389 182.207 337.748V336.641C182.207 335.41 182.084 334.332 181.838 333.406C181.604 332.469 181.252 331.689 180.783 331.068C180.315 330.436 179.729 329.961 179.026 329.645C178.334 329.328 177.537 329.17 176.635 329.17H170.94V324.406H176.635C178.369 324.406 179.957 324.705 181.399 325.303C182.852 325.889 184.106 326.732 185.16 327.834C186.227 328.924 187.047 330.219 187.621 331.719C188.207 333.207 188.5 334.859 188.5 336.676V337.748C188.5 339.553 188.207 341.205 187.621 342.705C187.047 344.205 186.233 345.5 185.178 346.59C184.123 347.68 182.875 348.523 181.434 349.121C180.004 349.707 178.434 350 176.723 350ZM174.578 324.406V350H168.408V324.406H174.578ZM209.33 345.254V350H195.69V345.254H209.33ZM197.887 324.406V350H191.717V324.406H197.887ZM207.572 334.566V339.154H195.69V334.566H207.572ZM209.383 324.406V329.17H195.69V324.406H209.383ZM226.416 341.334H232.569C232.487 343.115 232.006 344.686 231.127 346.045C230.248 347.404 229.029 348.465 227.471 349.227C225.924 349.977 224.096 350.352 221.987 350.352C220.276 350.352 218.746 350.064 217.399 349.49C216.063 348.916 214.926 348.09 213.988 347.012C213.063 345.934 212.354 344.627 211.862 343.092C211.381 341.557 211.141 339.828 211.141 337.906V336.518C211.141 334.596 211.393 332.867 211.897 331.332C212.412 329.785 213.139 328.473 214.076 327.395C215.026 326.305 216.162 325.473 217.487 324.898C218.811 324.324 220.281 324.037 221.899 324.037C224.125 324.037 226.006 324.436 227.541 325.232C229.076 326.029 230.266 327.125 231.11 328.52C231.953 329.902 232.451 331.479 232.604 333.248H226.451C226.428 332.287 226.264 331.484 225.959 330.84C225.654 330.184 225.174 329.691 224.518 329.363C223.862 329.035 222.988 328.871 221.899 328.871C221.137 328.871 220.475 329.012 219.912 329.293C219.35 329.574 218.881 330.02 218.506 330.629C218.131 331.238 217.85 332.029 217.662 333.002C217.487 333.963 217.399 335.123 217.399 336.482V337.906C217.399 339.266 217.481 340.426 217.645 341.387C217.809 342.348 218.072 343.133 218.436 343.742C218.799 344.352 219.268 344.803 219.842 345.096C220.428 345.377 221.143 345.518 221.987 345.518C222.924 345.518 223.715 345.371 224.36 345.078C225.004 344.773 225.502 344.316 225.854 343.707C226.205 343.086 226.393 342.295 226.416 341.334ZM253.1 345.254V350H239.459V345.254H253.1ZM241.656 324.406V350H235.487V324.406H241.656ZM251.342 334.566V339.154H239.459V334.566H251.342ZM253.153 324.406V329.17H239.459V324.406H253.153ZM277.006 324.406V350H270.854L261.801 334.074V350H255.631V324.406H261.801L270.854 340.332V324.406H277.006ZM292.774 324.406V350H286.604V324.406H292.774ZM300.473 324.406V329.17H279.08V324.406H300.473ZM303.092 324.406H313.164C315.133 324.406 316.844 324.699 318.297 325.285C319.75 325.871 320.869 326.738 321.654 327.887C322.451 329.035 322.85 330.453 322.85 332.141C322.85 333.605 322.621 334.83 322.164 335.814C321.707 336.799 321.069 337.613 320.248 338.258C319.44 338.891 318.496 339.412 317.418 339.822L315.397 340.965H306.942L306.906 336.201H313.164C313.949 336.201 314.6 336.061 315.115 335.779C315.631 335.498 316.018 335.1 316.276 334.584C316.545 334.057 316.68 333.43 316.68 332.703C316.68 331.965 316.545 331.332 316.276 330.805C316.006 330.277 315.608 329.873 315.08 329.592C314.565 329.311 313.926 329.17 313.164 329.17H309.262V350H303.092V324.406ZM317.102 350L311.442 338.68L317.981 338.645L323.711 349.736V350H317.102ZM337.422 329.785L331.182 350H324.555L333.959 324.406H338.16L337.422 329.785ZM342.59 350L336.332 329.785L335.524 324.406H339.778L349.235 350H342.59ZM342.344 340.455V345.219H329.213V340.455H342.344ZM368.026 345.254V350H355.088V345.254H368.026ZM357.285 324.406V350H351.115V324.406H357.285ZM377.184 324.406V350H371.031V324.406H377.184ZM400.686 345.254V350H382.158V345.254H400.686ZM400.563 327.57L385.217 350H380.752V346.748L396.274 324.406H400.563V327.57ZM398.576 324.406V329.17H380.664V324.406H398.576ZM421.112 345.254V350H407.471V345.254H421.112ZM409.668 324.406V350H403.498V324.406H409.668ZM419.354 334.566V339.154H407.471V334.566H419.354ZM421.164 324.406V329.17H407.471V324.406H421.164ZM431.957 350H426.279L426.315 345.254H431.957C433.129 345.254 434.119 344.973 434.928 344.41C435.748 343.848 436.369 343.01 436.791 341.896C437.225 340.771 437.442 339.389 437.442 337.748V336.641C437.442 335.41 437.319 334.332 437.072 333.406C436.838 332.469 436.487 331.689 436.018 331.068C435.549 330.436 434.963 329.961 434.26 329.645C433.569 329.328 432.772 329.17 431.869 329.17H426.174V324.406H431.869C433.604 324.406 435.192 324.705 436.633 325.303C438.086 325.889 439.34 326.732 440.395 327.834C441.461 328.924 442.281 330.219 442.856 331.719C443.442 333.207 443.735 334.859 443.735 336.676V337.748C443.735 339.553 443.442 341.205 442.856 342.705C442.281 344.205 441.467 345.5 440.412 346.59C439.358 347.68 438.11 348.523 436.668 349.121C435.238 349.707 433.668 350 431.957 350ZM429.813 324.406V350H423.643V324.406H429.813Z" fill="black"/>
<defs>
<radialGradient id="paint0_radial_455_1407" cx="0" cy="0" r="1" gradientUnits="userSpaceOnUse" gradientTransform="translate(0.000175317 104.829) scale(209.605 209.088)">
<stop stop-color="#E80171"/>
<stop offset="0.790625" stop-color="#FFB640" stop-opacity="0.3"/>
<stop offset="1" stop-color="#FFB640" stop-opacity="0"/>
</radialGradient>
<radialGradient id="paint1_radial_455_1407" cx="0" cy="0" r="1" gradientUnits="userSpaceOnUse" gradientTransform="translate(295 154.84) rotate(180) scale(295 310.526)">
<stop stop-color="#83DBBA"/>
<stop offset="0.790625" stop-color="#FFB640" stop-opacity="0.3"/>
<stop offset="1" stop-color="#FFB640" stop-opacity="0"/>
</radialGradient>
<radialGradient id="paint2_radial_455_1407" cx="0" cy="0" r="1" gradientUnits="userSpaceOnUse" gradientTransform="translate(198.777 21.2193) rotate(90) scale(289.307 160.956)">
<stop stop-color="#FF735F"/>
<stop offset="0.790625" stop-color="#FFB640" stop-opacity="0.3"/>
<stop offset="1" stop-color="#FFB640" stop-opacity="0"/>
</radialGradient>
</defs>
</svg>
